<svg width="264" height="172" viewBox="0 0 264 172" fill="none" xmlns="http://www.w3.org/2000/svg">
<path d="M131.235 45.4807C120.45 33.0047 110.219 28.1974 100.6 28.1974C81.463 28.1974 65.9492 43.6734 65.9492 62.764C65.9492 71.9876 69.5707 80.3675 75.4725 86.5658M157.112 60.5954C149.068 70.8485 132.225 97.3306 104.573 97.3306C98.8552 97.3306 91.1635 95.949 85.3175 93.5023" stroke="#B28D77" stroke-width="3.69767" stroke-linecap="round" stroke-linejoin="round"/>
<path d="M132.038 45.9386C143.398 32.5469 152.709 28.1974 162.903 28.1974C182.04 28.1974 197.554 43.6734 197.554 62.764C197.554 71.8212 194.062 80.0648 188.348 86.2281M107.732 62.1556C115.776 71.2943 133.265 97.3306 160.917 97.3306C166.332 97.3306 172.551 96.0914 177.689 93.8818" stroke="#B28D77" stroke-width="3.69767" stroke-linecap="round" stroke-linejoin="round"/>
<path d="M132.039 57.9174C130.663 57.9174 129.4 54.6374 129.4 52.3482C129.4 45.9385 136.803 39.4143 144.661 39.4143C152.518 39.4143 158.888 45.7687 158.888 53.6072C158.888 56.0155 158.578 58.4067 157.14 60.5953" stroke="#B28D77" stroke-width="3.69767" stroke-linecap="round" stroke-linejoin="round"/>
<path d="M107.715 62.0772C105.305 59.3302 104.732 56.8851 104.732 53.6072C104.732 45.7687 111.101 39.4143 118.959 39.4143C126.817 39.4143 134.219 45.9385 134.219 52.3482C134.219 54.6374 133.377 57.9633 132 57.9633" stroke="#B28D77" stroke-width="3.69767" stroke-linecap="round" stroke-linejoin="round"/>
<path d="M98.7465 20.1857L89.5674 13.8951L92.3922 7.36627H105.101L107.926 13.8951L98.7465 20.1857Z" stroke="#B28D77" stroke-width="3.69767" stroke-linecap="round" stroke-linejoin="round"/>
<path d="M165.542 20.1857L156.363 13.8951L159.188 7.36627H171.896L174.721 13.8951L165.542 20.1857Z" stroke="#B28D77" stroke-width="3.69767" stroke-linecap="round" stroke-linejoin="round"/>
<g opacity="0.9">
<path d="M26.4224 132.663H40.3644V134.762C39.6523 135.315 38.8652 135.812 38.0032 136.254C37.1412 136.659 36.3354 136.972 35.5859 137.193V172H30.8073L10.9625 143.823L8.71376 139.569H8.5451L9.05106 143.989V167.028C9.80063 167.212 10.6252 167.525 11.5246 167.967C12.4616 168.372 13.2487 168.796 13.8858 169.238V171.337H0V169.238C0.674613 168.796 1.40544 168.39 2.19249 168.022C3.01702 167.617 3.86029 167.285 4.72229 167.028V136.862C3.97272 136.567 3.22315 136.236 2.47358 135.867C1.72401 135.499 1.0494 135.112 0.449742 134.707V132.663H12.5928L28.7273 155.646L31.3133 160.398H31.5382L31.2571 155.646V137.193C30.3576 136.899 29.4769 136.549 28.6148 136.144C27.7903 135.702 27.0595 135.241 26.4224 134.762V132.663Z" fill="#3D453A"/>
<path d="M48.8989 132.663H66.214V134.762C64.9772 135.536 63.553 136.07 61.9414 136.365V157.635C61.9414 159.44 62.1476 160.95 62.5598 162.166C62.9721 163.381 63.5718 164.376 64.3588 165.149C65.1459 165.886 66.0828 166.42 67.1697 166.751C68.2941 167.083 69.5496 167.249 70.9363 167.249C72.1731 167.249 73.2974 167.083 74.3094 166.751C75.3588 166.383 76.2582 165.812 77.0078 165.039C77.7949 164.265 78.3945 163.252 78.8068 162C79.219 160.748 79.4252 159.201 79.4252 157.359V136.641C78.5632 136.457 77.6637 136.199 76.7267 135.867C75.8272 135.536 75.0777 135.168 74.478 134.762V132.663H88.42V134.762C87.7454 135.241 86.9958 135.628 86.1713 135.923C85.3468 136.217 84.541 136.457 83.754 136.641V157.414C83.754 162.129 82.4797 165.72 79.9311 168.188C77.4201 170.619 73.8596 171.834 69.2498 171.834C64.2276 171.834 60.3486 170.729 57.6127 168.519C54.8767 166.309 53.5088 162.773 53.5088 157.912V136.365C52.7592 136.254 51.9722 136.07 51.1476 135.812C50.3231 135.517 49.5735 135.168 48.8989 134.762V132.663Z" fill="#3D453A"/>
<path d="M109.886 167.635C110.898 167.783 111.892 168.004 112.866 168.298C113.878 168.556 114.777 168.869 115.564 169.238V171.337H96.8439V169.238C97.556 168.832 98.3056 168.501 99.0926 168.243C99.9171 167.985 100.704 167.783 101.454 167.635V136.365C100.592 136.217 99.7672 136.015 98.9802 135.757C98.1931 135.462 97.481 135.131 96.8439 134.762V132.663H103.927C105.426 132.663 107.132 132.589 109.043 132.442C110.992 132.295 112.772 132.221 114.384 132.221C116.37 132.221 118.3 132.424 120.174 132.829C122.086 133.197 123.772 133.842 125.234 134.762C126.733 135.683 127.932 136.917 128.832 138.464C129.731 139.974 130.181 141.871 130.181 144.155C130.181 146.328 129.731 148.206 128.832 149.79C127.97 151.374 126.808 152.681 125.346 153.713C123.885 154.744 122.198 155.517 120.287 156.033C118.375 156.512 116.408 156.751 114.384 156.751C114.196 156.751 113.897 156.751 113.484 156.751C113.072 156.751 112.622 156.751 112.135 156.751C111.685 156.715 111.236 156.696 110.786 156.696C110.374 156.659 110.074 156.622 109.886 156.586V167.635ZM112.922 135.812C112.173 135.812 111.573 135.849 111.123 135.923C110.711 135.959 110.299 136.033 109.886 136.144V152.939C110.224 153.05 110.73 153.123 111.404 153.16C112.079 153.16 112.622 153.16 113.035 153.16C114.047 153.16 115.021 152.994 115.958 152.663C116.895 152.331 117.719 151.816 118.432 151.116C119.181 150.416 119.781 149.514 120.23 148.409C120.68 147.304 120.905 145.978 120.905 144.431C120.905 141.484 120.174 139.311 118.713 137.912C117.251 136.512 115.321 135.812 112.922 135.812Z" fill="#3D453A"/>
<path d="M167.096 171.337H147.757V169.238C148.507 168.943 149.35 168.648 150.287 168.354C151.262 168.022 152.236 167.783 153.211 167.635V136.254H146.689L143.091 145.702H140.786C140.637 144.965 140.487 144.026 140.337 142.884C140.187 141.742 140.056 140.564 139.943 139.348C139.831 138.133 139.737 136.936 139.662 135.757C139.587 134.541 139.55 133.51 139.55 132.663H175.304C175.304 133.547 175.267 134.578 175.192 135.757C175.117 136.936 175.023 138.133 174.911 139.348C174.798 140.564 174.667 141.742 174.517 142.884C174.367 143.989 174.217 144.928 174.067 145.702H171.762L168.164 136.254H161.643V167.635C162.618 167.82 163.573 168.041 164.51 168.298C165.485 168.556 166.347 168.869 167.096 169.238V171.337Z" fill="#3D453A"/>
<path d="M176.671 167.414C176.671 166.088 177.102 165.02 177.964 164.21C178.826 163.4 179.969 162.994 181.393 162.994C182.817 162.994 183.979 163.4 184.878 164.21C185.778 165.02 186.228 166.088 186.228 167.414C186.228 168.74 185.778 169.808 184.878 170.619C183.979 171.392 182.817 171.779 181.393 171.779C179.969 171.779 178.826 171.392 177.964 170.619C177.102 169.808 176.671 168.74 176.671 167.414Z" fill="#3D453A"/>
<path d="M210.677 171.337H196.791V169.238C197.39 168.869 198.028 168.556 198.702 168.298C199.414 168.004 200.108 167.783 200.782 167.635L215.286 132H219.447L233.557 167.635C234.307 167.783 235.056 168.004 235.806 168.298C236.555 168.556 237.211 168.869 237.774 169.238V171.337H220.177V169.238C220.889 168.906 221.658 168.593 222.482 168.298C223.307 168.004 224.094 167.783 224.843 167.635L221.583 158.851H209.102L205.786 167.635C207.51 167.856 209.14 168.39 210.677 169.238V171.337ZM210.452 155.26H220.402L216.748 144.707L215.68 139.956H215.568L214.331 144.818L210.452 155.26Z" fill="#3D453A"/>
<path d="M264 171.337H246.46V169.238C247.959 168.427 249.477 167.893 251.014 167.635V136.365C250.264 136.254 249.477 136.052 248.653 135.757C247.828 135.462 247.097 135.131 246.46 134.762V132.663H264V134.762C263.325 135.168 262.576 135.517 261.751 135.812C260.964 136.07 260.196 136.254 259.446 136.365V167.635C260.196 167.783 260.964 167.985 261.751 168.243C262.576 168.501 263.325 168.832 264 169.238V171.337Z" fill="#3D453A"/>
</g>
</svg>
